<svg width="24" height="24" viewBox="0 0 24 24" fill="currentColor" xmlns="http://www.w3.org/2000/svg">
<path d="M8 2H4C2.89543 2 2 2.89543 2 4V8C2 9.10457 2.89543 10 4 10H8C9.10457 10 10 9.10457 10 8V4C10 2.89543 9.10457 2 8 2Z" />
<path d="M20 2H16C14.8954 2 14 2.89543 14 4V8C14 9.10457 14.8954 10 16 10H20C21.1046 10 22 9.10457 22 8V4C22 2.89543 21.1046 2 20 2Z" />
<path d="M8 14H4C2.89543 14 2 14.8954 2 16V20C2 21.1046 2.89543 22 4 22H8C9.10457 22 10 21.1046 10 20V16C10 14.8954 9.10457 14 8 14Z" />
<path d="M16.6918 14.0703C14.1736 14.4942 13.1178 17.6518 14.8572 19.5118C15.3938 20.0827 15.8957 20.3682 16.6399 20.5239C17.3928 20.6797 18.1197 20.5758 18.7514 20.2212L19.1841 19.9789L20.1879 20.9738C20.9581 21.7264 21.2523 21.96 21.4254 21.96C21.7456 21.96 21.91 21.7956 21.91 21.4755C21.91 21.2333 21.7715 21.0603 20.9235 20.2298L19.937 19.2523L20.1879 18.8024C20.3177 18.5515 20.4648 18.119 20.5081 17.8335C20.7937 16.0514 19.6168 14.4077 17.8081 14.079C17.2457 13.9752 17.2803 13.9752 16.6918 14.0703ZM18.5956 14.6845C19.0889 14.9268 19.6687 15.515 19.937 16.0514C20.1014 16.3801 20.136 16.5878 20.136 17.2712C20.136 17.9806 20.1014 18.1709 19.8937 18.6726L19.6427 19.2523L19.8158 19.5377C19.9196 19.6934 20.3264 20.1519 20.7331 20.5499C21.4427 21.242 21.6158 21.5101 21.3648 21.5101C21.3042 21.5101 20.9235 21.1814 20.5254 20.7662C20.1187 20.3596 19.66 19.953 19.5043 19.8492L19.2187 19.6761L18.6822 19.9184C18.0418 20.2039 17.0293 20.299 16.4062 20.126C15.8091 19.953 15.0822 19.3734 14.7274 18.7764C14.4332 18.2833 14.4245 18.2574 14.4245 17.3144C14.4245 16.2763 14.4851 16.0773 15.0303 15.4112C15.8351 14.425 17.4014 14.1049 18.5956 14.6845Z" />
<path d="M16.536 14.7883C15.6793 15.1084 15.0736 15.7054 14.8139 16.4926C14.5716 17.2106 14.6063 17.7729 14.9438 18.4304C15.6274 19.78 17.1072 20.299 18.3966 19.6502C19.3485 19.1657 19.8677 18.3439 19.8677 17.3058C19.8677 16.2677 19.3052 15.3853 18.3706 14.9527C17.8168 14.6932 16.986 14.624 16.536 14.7883ZM18.0245 15.1517C18.561 15.3334 18.9677 15.6967 19.2706 16.2417C19.4869 16.631 19.5302 16.804 19.5302 17.3144C19.5302 17.8335 19.4869 17.9892 19.262 18.3958C18.6302 19.5204 17.3149 19.9011 16.1899 19.2868C14.8226 18.5515 14.5803 16.804 15.6793 15.7053C16.311 15.0738 17.1851 14.8662 18.0245 15.1517Z" />
</svg>
