<svg width="22" height="24" viewBox="0 0 22 24" fill="none" xmlns="http://www.w3.org/2000/svg">
<path d="M2.13 7.58008V21.0001C2.13 21.7957 2.44608 22.5588 3.00868 23.1214C3.57129 23.684 4.33436 24.0001 5.13 24.0001H16.88C17.6757 24.0001 18.4387 23.684 19.0013 23.1214C19.5639 22.5588 19.88 21.7957 19.88 21.0001V7.58008C19.88 7.31486 19.7746 7.06051 19.5871 6.87297C19.3996 6.68544 19.1452 6.58008 18.88 6.58008H3.13C2.86479 6.58008 2.61043 6.68544 2.4229 6.87297C2.23536 7.06051 2.13 7.31486 2.13 7.58008ZM8 19.0001C8 19.2653 7.89465 19.5196 7.70711 19.7072C7.51957 19.8947 7.26522 20.0001 7 20.0001C6.73479 20.0001 6.48043 19.8947 6.2929 19.7072C6.10536 19.5196 6 19.2653 6 19.0001V11.0001C6 10.7349 6.10536 10.4805 6.2929 10.293C6.48043 10.1054 6.73479 10.0001 7 10.0001C7.26522 10.0001 7.51957 10.1054 7.70711 10.293C7.89465 10.4805 8 10.7349 8 11.0001V19.0001ZM12 19.0001C12 19.2653 11.8946 19.5196 11.7071 19.7072C11.5196 19.8947 11.2652 20.0001 11 20.0001C10.7348 20.0001 10.4804 19.8947 10.2929 19.7072C10.1054 19.5196 10 19.2653 10 19.0001V11.0001C10 10.7349 10.1054 10.4805 10.2929 10.293C10.4804 10.1054 10.7348 10.0001 11 10.0001C11.2652 10.0001 11.5196 10.1054 11.7071 10.293C11.8946 10.4805 12 10.7349 12 11.0001V19.0001ZM16 19.0001C16 19.2653 15.8946 19.5196 15.7071 19.7072C15.5196 19.8947 15.2652 20.0001 15 20.0001C14.7348 20.0001 14.4804 19.8947 14.2929 19.7072C14.1054 19.5196 14 19.2653 14 19.0001V11.0001C14 10.7349 14.1054 10.4805 14.2929 10.293C14.4804 10.1054 14.7348 10.0001 15 10.0001C15.2652 10.0001 15.5196 10.1054 15.7071 10.293C15.8946 10.4805 16 10.7349 16 11.0001V19.0001Z" fill="url(#paint0_linear_29_102)"/>
<path d="M20.23 5.3C20.5118 5.03532 20.7281 4.70866 20.8617 4.3459C20.9954 3.98313 21.0427 3.59423 21 3.21C20.9051 2.58307 20.5844 2.01243 20.0982 1.60542C19.612 1.19841 18.9939 0.983105 18.36 1H13.72C13.5455 0.697724 13.2949 0.446381 12.9932 0.270949C12.6914 0.0955178 12.349 0.00210674 12 0H10C9.65099 0.00210674 9.30859 0.0955178 9.00685 0.270949C8.7051 0.446381 8.45452 0.697724 8.28001 1H3.64001C3.00617 0.983105 2.388 1.19841 1.90181 1.60542C1.41561 2.01243 1.0949 2.58307 1.00001 3.21C0.957304 3.59423 1.00465 3.98313 1.1383 4.3459C1.27195 4.70866 1.48823 5.03532 1.77001 5.3C1.86345 5.39268 1.97427 5.46601 2.09611 5.51577C2.21795 5.56554 2.34841 5.59076 2.48001 5.59H19.48C19.6183 5.5962 19.7563 5.57363 19.8854 5.52371C20.0145 5.47379 20.1319 5.39761 20.23 5.3Z" fill="url(#paint1_linear_29_102)"/>
<defs>
<linearGradient id="paint0_linear_29_102" x1="5.6881" y1="29.8067" x2="15.7464" y2="2.17689" gradientUnits="userSpaceOnUse">
<stop stop-color="#7B4A6F"/>
<stop offset="1" stop-color="#D82222"/>
</linearGradient>
<linearGradient id="paint1_linear_29_102" x1="5" y1="7.45467" x2="6.0288" y2="-2.48191" gradientUnits="userSpaceOnUse">
<stop stop-color="#7B4A6F"/>
<stop offset="1" stop-color="#D82222"/>
</linearGradient>
</defs>
</svg>
