<?xml version="1.0" standalone="no"?>
<!DOCTYPE svg PUBLIC "-//W3C//DTD SVG 20010904//EN"
 "http://www.w3.org/TR/2001/REC-SVG-20010904/DTD/svg10.dtd">
<svg version="1.0" xmlns="http://www.w3.org/2000/svg"
 width="300.000000pt" height="300.000000pt" viewBox="0 0 300.000000 300.000000"
 preserveAspectRatio="xMidYMid meet">
<metadata>
Created by potrace 1.10, written by Peter Selinger 2001-2011
</metadata>
<g transform="translate(0.000000,300.000000) scale(0.100000,-0.100000)"
fill="#000000" stroke="none">
<path d="M1765 2601 c-53 -25 -93 -65 -116 -115 -17 -37 -19 -70 -19 -355 0
-214 4 -326 12 -353 15 -52 84 -121 136 -136 27 -8 139 -12 353 -12 346 0 363
3 424 66 63 66 65 77 65 429 0 357 -2 366 -71 432 -65 61 -76 63 -426 63 -290
0 -322 -2 -358 -19z m698 -35 c44 -19 84 -60 102 -104 13 -31 15 -86 13 -352
l-3 -317 -28 -42 c-52 -78 -66 -81 -422 -81 -361 0 -372 3 -425 86 l-30 48 0
305 c0 173 4 322 10 342 13 45 70 106 113 118 17 5 168 10 335 10 239 1 309
-2 335 -13z"/>
<path d="M1805 2531 c-52 -24 -80 -56 -94 -106 -15 -54 -15 -547 0 -600 14
-50 64 -100 114 -114 25 -7 144 -11 310 -11 297 0 326 5 373 65 37 46 42 90
41 370 0 310 -4 328 -79 380 l-43 30 -291 3 c-267 2 -294 1 -331 -17z m635
-39 c66 -33 70 -52 70 -365 0 -309 -4 -331 -62 -367 -31 -19 -50 -20 -321 -20
-318 0 -330 2 -367 63 -19 30 -20 52 -20 317 0 415 -25 390 385 390 247 0 284
-2 315 -18z"/>
<path d="M545 2559 c-55 -29 -81 -55 -105 -104 -19 -38 -20 -61 -20 -330 0
-271 1 -291 21 -331 27 -58 78 -100 141 -119 75 -22 511 -22 586 0 65 19 119
66 146 125 19 41 21 67 24 292 2 161 -1 267 -8 303 -14 69 -60 130 -119 162
-43 23 -50 23 -335 23 -277 0 -293 -1 -331 -21z m650 -41 c39 -21 71 -56 85
-92 7 -19 11 -129 11 -310 l-1 -281 -27 -39 c-36 -50 -70 -75 -119 -86 -21 -5
-154 -8 -294 -7 -215 2 -260 5 -285 19 -40 21 -81 66 -94 101 -7 18 -11 134
-11 305 0 311 1 317 74 377 l38 30 236 5 c267 6 344 1 387 -22z"/>
<path d="M612 2500 c-44 -10 -100 -65 -112 -110 -13 -46 -13 -485 0 -529 11
-39 51 -86 92 -107 21 -11 82 -14 284 -14 256 0 257 0 300 25 28 16 49 39 63
68 20 40 21 60 21 294 0 242 -1 251 -23 293 -16 30 -37 51 -67 67 -42 22 -51
23 -284 22 -133 -1 -256 -5 -274 -9z m574 -72 l34 -38 0 -261 c0 -372 23 -349
-349 -349 l-261 0 -38 34 -37 34 0 275 0 275 25 27 c14 15 34 31 45 36 11 4
138 7 283 6 l264 -2 34 -37z"/>
<path d="M514 1351 c-50 -23 -90 -63 -115 -116 -17 -37 -19 -68 -19 -360 0
-357 2 -366 71 -432 65 -61 76 -63 426 -63 350 0 361 2 427 65 63 61 66 78 66
424 0 214 -4 326 -12 353 -15 52 -84 121 -136 136 -27 8 -139 12 -353 12 -285
0 -318 -2 -355 -19z m732 -53 c84 -58 84 -58 84 -416 0 -259 -3 -319 -15 -349
-21 -50 -42 -72 -90 -94 -36 -17 -71 -19 -355 -19 -301 0 -316 1 -349 21 -42
25 -68 54 -87 97 -12 27 -14 90 -14 344 1 337 2 343 58 396 54 50 65 51 403
52 l317 0 48 -32z"/>
<path d="M572 1293 c-38 -7 -99 -73 -112 -122 -8 -30 -10 -130 -8 -320 3 -264
4 -278 25 -311 23 -37 50 -63 74 -69 70 -19 132 -22 366 -19 l270 3 36 28 c72
55 72 56 72 398 l0 306 -29 37 c-54 72 -74 76 -391 74 -154 0 -290 -3 -303 -5z
m625 -53 c61 -37 63 -49 63 -362 0 -412 24 -388 -385 -388 -409 0 -385 -24
-385 385 0 410 -25 385 390 385 265 0 287 -1 317 -20z"/>
<path d="M1977 1330 c-291 -49 -413 -414 -212 -629 62 -66 120 -99 206 -117
87 -18 171 -6 244 35 l50 28 116 -115 c89 -87 123 -114 143 -114 37 0 56 19
56 56 0 28 -16 48 -114 144 l-114 113 29 52 c15 29 32 79 37 112 33 206 -103
396 -312 434 -65 12 -61 12 -129 1z m220 -71 c57 -28 124 -96 155 -158 19 -38
23 -62 23 -141 0 -82 -4 -104 -28 -162 l-29 -67 20 -33 c12 -18 59 -71 106
-117 82 -80 102 -111 73 -111 -7 0 -51 38 -97 86 -47 47 -100 94 -118 106
l-33 20 -62 -28 c-74 -33 -191 -44 -263 -24 -69 20 -153 87 -194 156 -34 57
-35 60 -35 169 0 120 7 143 70 220 93 114 274 151 412 84z"/>
<path d="M1959 1247 c-99 -37 -169 -106 -199 -197 -28 -83 -24 -148 15 -224
79 -156 250 -216 399 -141 110 56 170 151 170 271 0 120 -65 222 -173 272 -64
30 -160 38 -212 19z m172 -42 c62 -21 109 -63 144 -126 25 -45 30 -65 30 -124
0 -60 -5 -78 -31 -125 -73 -130 -225 -174 -355 -103 -158 85 -186 287 -59 414
73 73 174 97 271 64z"/>
</g>
</svg>
